%TF.GenerationSoftware,KiCad,Pcbnew,9.0.3*%
%TF.CreationDate,2025-10-19T16:24:49+11:00*%
%TF.ProjectId,NRF24L01-better-breakout,4e524632-344c-4303-912d-626574746572,rev?*%
%TF.SameCoordinates,Original*%
%TF.FileFunction,Legend,Top*%
%TF.FilePolarity,Positive*%
%FSLAX46Y46*%
G04 Gerber Fmt 4.6, Leading zero omitted, Abs format (unit mm)*
G04 Created by KiCad (PCBNEW 9.0.3) date 2025-10-19 16:24:49*
%MOMM*%
%LPD*%
G01*
G04 APERTURE LIST*
G04 Aperture macros list*
%AMRoundRect*
0 Rectangle with rounded corners*
0 $1 Rounding radius*
0 $2 $3 $4 $5 $6 $7 $8 $9 X,Y pos of 4 corners*
0 Add a 4 corners polygon primitive as box body*
4,1,4,$2,$3,$4,$5,$6,$7,$8,$9,$2,$3,0*
0 Add four circle primitives for the rounded corners*
1,1,$1+$1,$2,$3*
1,1,$1+$1,$4,$5*
1,1,$1+$1,$6,$7*
1,1,$1+$1,$8,$9*
0 Add four rect primitives between the rounded corners*
20,1,$1+$1,$2,$3,$4,$5,0*
20,1,$1+$1,$4,$5,$6,$7,0*
20,1,$1+$1,$6,$7,$8,$9,0*
20,1,$1+$1,$8,$9,$2,$3,0*%
G04 Aperture macros list end*
%ADD10C,0.075000*%
%ADD11C,0.100000*%
%ADD12C,0.150000*%
%ADD13C,0.127000*%
%ADD14C,0.200000*%
%ADD15C,0.120000*%
%ADD16RoundRect,0.141750X-0.425250X0.950250X-0.425250X-0.950250X0.425250X-0.950250X0.425250X0.950250X0*%
%ADD17RoundRect,0.273000X-1.444000X0.819000X-1.444000X-0.819000X1.444000X-0.819000X1.444000X0.819000X0*%
%ADD18RoundRect,0.250000X0.412500X0.650000X-0.412500X0.650000X-0.412500X-0.650000X0.412500X-0.650000X0*%
%ADD19RoundRect,0.250000X-0.550000X0.550000X-0.550000X-0.550000X0.550000X-0.550000X0.550000X0.550000X0*%
%ADD20C,1.600000*%
%ADD21R,1.700000X1.700000*%
%ADD22C,1.700000*%
%ADD23RoundRect,0.250000X-0.412500X-0.650000X0.412500X-0.650000X0.412500X0.650000X-0.412500X0.650000X0*%
G04 APERTURE END LIST*
D10*
X114074900Y-72126571D02*
X114046328Y-72212286D01*
X114046328Y-72212286D02*
X114046328Y-72355143D01*
X114046328Y-72355143D02*
X114074900Y-72412286D01*
X114074900Y-72412286D02*
X114103471Y-72440857D01*
X114103471Y-72440857D02*
X114160614Y-72469428D01*
X114160614Y-72469428D02*
X114217757Y-72469428D01*
X114217757Y-72469428D02*
X114274900Y-72440857D01*
X114274900Y-72440857D02*
X114303471Y-72412286D01*
X114303471Y-72412286D02*
X114332042Y-72355143D01*
X114332042Y-72355143D02*
X114360614Y-72240857D01*
X114360614Y-72240857D02*
X114389185Y-72183714D01*
X114389185Y-72183714D02*
X114417757Y-72155143D01*
X114417757Y-72155143D02*
X114474900Y-72126571D01*
X114474900Y-72126571D02*
X114532042Y-72126571D01*
X114532042Y-72126571D02*
X114589185Y-72155143D01*
X114589185Y-72155143D02*
X114617757Y-72183714D01*
X114617757Y-72183714D02*
X114646328Y-72240857D01*
X114646328Y-72240857D02*
X114646328Y-72383714D01*
X114646328Y-72383714D02*
X114617757Y-72469428D01*
X114103471Y-73069429D02*
X114074900Y-73040857D01*
X114074900Y-73040857D02*
X114046328Y-72955143D01*
X114046328Y-72955143D02*
X114046328Y-72898000D01*
X114046328Y-72898000D02*
X114074900Y-72812286D01*
X114074900Y-72812286D02*
X114132042Y-72755143D01*
X114132042Y-72755143D02*
X114189185Y-72726572D01*
X114189185Y-72726572D02*
X114303471Y-72698000D01*
X114303471Y-72698000D02*
X114389185Y-72698000D01*
X114389185Y-72698000D02*
X114503471Y-72726572D01*
X114503471Y-72726572D02*
X114560614Y-72755143D01*
X114560614Y-72755143D02*
X114617757Y-72812286D01*
X114617757Y-72812286D02*
X114646328Y-72898000D01*
X114646328Y-72898000D02*
X114646328Y-72955143D01*
X114646328Y-72955143D02*
X114617757Y-73040857D01*
X114617757Y-73040857D02*
X114589185Y-73069429D01*
X114046328Y-73326572D02*
X114646328Y-73326572D01*
X114046328Y-73669429D02*
X114389185Y-73412286D01*
X114646328Y-73669429D02*
X114303471Y-73326572D01*
D11*
X101995979Y-62302895D02*
X102262646Y-63102895D01*
X102262646Y-63102895D02*
X102529312Y-62302895D01*
X103253122Y-63026704D02*
X103215026Y-63064800D01*
X103215026Y-63064800D02*
X103100741Y-63102895D01*
X103100741Y-63102895D02*
X103024550Y-63102895D01*
X103024550Y-63102895D02*
X102910264Y-63064800D01*
X102910264Y-63064800D02*
X102834074Y-62988609D01*
X102834074Y-62988609D02*
X102795979Y-62912419D01*
X102795979Y-62912419D02*
X102757883Y-62760038D01*
X102757883Y-62760038D02*
X102757883Y-62645752D01*
X102757883Y-62645752D02*
X102795979Y-62493371D01*
X102795979Y-62493371D02*
X102834074Y-62417180D01*
X102834074Y-62417180D02*
X102910264Y-62340990D01*
X102910264Y-62340990D02*
X103024550Y-62302895D01*
X103024550Y-62302895D02*
X103100741Y-62302895D01*
X103100741Y-62302895D02*
X103215026Y-62340990D01*
X103215026Y-62340990D02*
X103253122Y-62379085D01*
X104053122Y-63026704D02*
X104015026Y-63064800D01*
X104015026Y-63064800D02*
X103900741Y-63102895D01*
X103900741Y-63102895D02*
X103824550Y-63102895D01*
X103824550Y-63102895D02*
X103710264Y-63064800D01*
X103710264Y-63064800D02*
X103634074Y-62988609D01*
X103634074Y-62988609D02*
X103595979Y-62912419D01*
X103595979Y-62912419D02*
X103557883Y-62760038D01*
X103557883Y-62760038D02*
X103557883Y-62645752D01*
X103557883Y-62645752D02*
X103595979Y-62493371D01*
X103595979Y-62493371D02*
X103634074Y-62417180D01*
X103634074Y-62417180D02*
X103710264Y-62340990D01*
X103710264Y-62340990D02*
X103824550Y-62302895D01*
X103824550Y-62302895D02*
X103900741Y-62302895D01*
X103900741Y-62302895D02*
X104015026Y-62340990D01*
X104015026Y-62340990D02*
X104053122Y-62379085D01*
D10*
X121648528Y-70772285D02*
X121677100Y-70800857D01*
X121677100Y-70800857D02*
X121705671Y-70886571D01*
X121705671Y-70886571D02*
X121705671Y-70943714D01*
X121705671Y-70943714D02*
X121677100Y-71029428D01*
X121677100Y-71029428D02*
X121619957Y-71086571D01*
X121619957Y-71086571D02*
X121562814Y-71115142D01*
X121562814Y-71115142D02*
X121448528Y-71143714D01*
X121448528Y-71143714D02*
X121362814Y-71143714D01*
X121362814Y-71143714D02*
X121248528Y-71115142D01*
X121248528Y-71115142D02*
X121191385Y-71086571D01*
X121191385Y-71086571D02*
X121134242Y-71029428D01*
X121134242Y-71029428D02*
X121105671Y-70943714D01*
X121105671Y-70943714D02*
X121105671Y-70886571D01*
X121105671Y-70886571D02*
X121134242Y-70800857D01*
X121134242Y-70800857D02*
X121162814Y-70772285D01*
X121677100Y-70543714D02*
X121705671Y-70458000D01*
X121705671Y-70458000D02*
X121705671Y-70315142D01*
X121705671Y-70315142D02*
X121677100Y-70258000D01*
X121677100Y-70258000D02*
X121648528Y-70229428D01*
X121648528Y-70229428D02*
X121591385Y-70200857D01*
X121591385Y-70200857D02*
X121534242Y-70200857D01*
X121534242Y-70200857D02*
X121477100Y-70229428D01*
X121477100Y-70229428D02*
X121448528Y-70258000D01*
X121448528Y-70258000D02*
X121419957Y-70315142D01*
X121419957Y-70315142D02*
X121391385Y-70429428D01*
X121391385Y-70429428D02*
X121362814Y-70486571D01*
X121362814Y-70486571D02*
X121334242Y-70515142D01*
X121334242Y-70515142D02*
X121277100Y-70543714D01*
X121277100Y-70543714D02*
X121219957Y-70543714D01*
X121219957Y-70543714D02*
X121162814Y-70515142D01*
X121162814Y-70515142D02*
X121134242Y-70486571D01*
X121134242Y-70486571D02*
X121105671Y-70429428D01*
X121105671Y-70429428D02*
X121105671Y-70286571D01*
X121105671Y-70286571D02*
X121134242Y-70200857D01*
X121705671Y-69943713D02*
X121105671Y-69943713D01*
X121105671Y-69943713D02*
X121705671Y-69600856D01*
X121705671Y-69600856D02*
X121105671Y-69600856D01*
D11*
X102110265Y-78342895D02*
X102110265Y-77542895D01*
X102110265Y-77542895D02*
X102376931Y-78114323D01*
X102376931Y-78114323D02*
X102643598Y-77542895D01*
X102643598Y-77542895D02*
X102643598Y-78342895D01*
X103024551Y-78342895D02*
X103024551Y-77542895D01*
X103367407Y-78304800D02*
X103481693Y-78342895D01*
X103481693Y-78342895D02*
X103672169Y-78342895D01*
X103672169Y-78342895D02*
X103748360Y-78304800D01*
X103748360Y-78304800D02*
X103786455Y-78266704D01*
X103786455Y-78266704D02*
X103824550Y-78190514D01*
X103824550Y-78190514D02*
X103824550Y-78114323D01*
X103824550Y-78114323D02*
X103786455Y-78038133D01*
X103786455Y-78038133D02*
X103748360Y-78000038D01*
X103748360Y-78000038D02*
X103672169Y-77961942D01*
X103672169Y-77961942D02*
X103519788Y-77923847D01*
X103519788Y-77923847D02*
X103443598Y-77885752D01*
X103443598Y-77885752D02*
X103405503Y-77847657D01*
X103405503Y-77847657D02*
X103367407Y-77771466D01*
X103367407Y-77771466D02*
X103367407Y-77695276D01*
X103367407Y-77695276D02*
X103405503Y-77619085D01*
X103405503Y-77619085D02*
X103443598Y-77580990D01*
X103443598Y-77580990D02*
X103519788Y-77542895D01*
X103519788Y-77542895D02*
X103710265Y-77542895D01*
X103710265Y-77542895D02*
X103824550Y-77580990D01*
X104319789Y-77542895D02*
X104472170Y-77542895D01*
X104472170Y-77542895D02*
X104548360Y-77580990D01*
X104548360Y-77580990D02*
X104624551Y-77657180D01*
X104624551Y-77657180D02*
X104662646Y-77809561D01*
X104662646Y-77809561D02*
X104662646Y-78076228D01*
X104662646Y-78076228D02*
X104624551Y-78228609D01*
X104624551Y-78228609D02*
X104548360Y-78304800D01*
X104548360Y-78304800D02*
X104472170Y-78342895D01*
X104472170Y-78342895D02*
X104319789Y-78342895D01*
X104319789Y-78342895D02*
X104243598Y-78304800D01*
X104243598Y-78304800D02*
X104167408Y-78228609D01*
X104167408Y-78228609D02*
X104129312Y-78076228D01*
X104129312Y-78076228D02*
X104129312Y-77809561D01*
X104129312Y-77809561D02*
X104167408Y-77657180D01*
X104167408Y-77657180D02*
X104243598Y-77580990D01*
X104243598Y-77580990D02*
X104319789Y-77542895D01*
D10*
X121705671Y-73840856D02*
X121105671Y-73840856D01*
X121105671Y-73840856D02*
X121534242Y-73640856D01*
X121534242Y-73640856D02*
X121105671Y-73440856D01*
X121105671Y-73440856D02*
X121705671Y-73440856D01*
X121105671Y-73040857D02*
X121105671Y-72926571D01*
X121105671Y-72926571D02*
X121134242Y-72869428D01*
X121134242Y-72869428D02*
X121191385Y-72812285D01*
X121191385Y-72812285D02*
X121305671Y-72783714D01*
X121305671Y-72783714D02*
X121505671Y-72783714D01*
X121505671Y-72783714D02*
X121619957Y-72812285D01*
X121619957Y-72812285D02*
X121677100Y-72869428D01*
X121677100Y-72869428D02*
X121705671Y-72926571D01*
X121705671Y-72926571D02*
X121705671Y-73040857D01*
X121705671Y-73040857D02*
X121677100Y-73098000D01*
X121677100Y-73098000D02*
X121619957Y-73155142D01*
X121619957Y-73155142D02*
X121505671Y-73183714D01*
X121505671Y-73183714D02*
X121305671Y-73183714D01*
X121305671Y-73183714D02*
X121191385Y-73155142D01*
X121191385Y-73155142D02*
X121134242Y-73098000D01*
X121134242Y-73098000D02*
X121105671Y-73040857D01*
X121677100Y-72555143D02*
X121705671Y-72469429D01*
X121705671Y-72469429D02*
X121705671Y-72326571D01*
X121705671Y-72326571D02*
X121677100Y-72269429D01*
X121677100Y-72269429D02*
X121648528Y-72240857D01*
X121648528Y-72240857D02*
X121591385Y-72212286D01*
X121591385Y-72212286D02*
X121534242Y-72212286D01*
X121534242Y-72212286D02*
X121477100Y-72240857D01*
X121477100Y-72240857D02*
X121448528Y-72269429D01*
X121448528Y-72269429D02*
X121419957Y-72326571D01*
X121419957Y-72326571D02*
X121391385Y-72440857D01*
X121391385Y-72440857D02*
X121362814Y-72498000D01*
X121362814Y-72498000D02*
X121334242Y-72526571D01*
X121334242Y-72526571D02*
X121277100Y-72555143D01*
X121277100Y-72555143D02*
X121219957Y-72555143D01*
X121219957Y-72555143D02*
X121162814Y-72526571D01*
X121162814Y-72526571D02*
X121134242Y-72498000D01*
X121134242Y-72498000D02*
X121105671Y-72440857D01*
X121105671Y-72440857D02*
X121105671Y-72298000D01*
X121105671Y-72298000D02*
X121134242Y-72212286D01*
X121705671Y-71955142D02*
X121105671Y-71955142D01*
D11*
X102110265Y-75802895D02*
X102110265Y-75002895D01*
X102110265Y-75002895D02*
X102376931Y-75574323D01*
X102376931Y-75574323D02*
X102643598Y-75002895D01*
X102643598Y-75002895D02*
X102643598Y-75802895D01*
X103176932Y-75002895D02*
X103329313Y-75002895D01*
X103329313Y-75002895D02*
X103405503Y-75040990D01*
X103405503Y-75040990D02*
X103481694Y-75117180D01*
X103481694Y-75117180D02*
X103519789Y-75269561D01*
X103519789Y-75269561D02*
X103519789Y-75536228D01*
X103519789Y-75536228D02*
X103481694Y-75688609D01*
X103481694Y-75688609D02*
X103405503Y-75764800D01*
X103405503Y-75764800D02*
X103329313Y-75802895D01*
X103329313Y-75802895D02*
X103176932Y-75802895D01*
X103176932Y-75802895D02*
X103100741Y-75764800D01*
X103100741Y-75764800D02*
X103024551Y-75688609D01*
X103024551Y-75688609D02*
X102986455Y-75536228D01*
X102986455Y-75536228D02*
X102986455Y-75269561D01*
X102986455Y-75269561D02*
X103024551Y-75117180D01*
X103024551Y-75117180D02*
X103100741Y-75040990D01*
X103100741Y-75040990D02*
X103176932Y-75002895D01*
X103824550Y-75764800D02*
X103938836Y-75802895D01*
X103938836Y-75802895D02*
X104129312Y-75802895D01*
X104129312Y-75802895D02*
X104205503Y-75764800D01*
X104205503Y-75764800D02*
X104243598Y-75726704D01*
X104243598Y-75726704D02*
X104281693Y-75650514D01*
X104281693Y-75650514D02*
X104281693Y-75574323D01*
X104281693Y-75574323D02*
X104243598Y-75498133D01*
X104243598Y-75498133D02*
X104205503Y-75460038D01*
X104205503Y-75460038D02*
X104129312Y-75421942D01*
X104129312Y-75421942D02*
X103976931Y-75383847D01*
X103976931Y-75383847D02*
X103900741Y-75345752D01*
X103900741Y-75345752D02*
X103862646Y-75307657D01*
X103862646Y-75307657D02*
X103824550Y-75231466D01*
X103824550Y-75231466D02*
X103824550Y-75155276D01*
X103824550Y-75155276D02*
X103862646Y-75079085D01*
X103862646Y-75079085D02*
X103900741Y-75040990D01*
X103900741Y-75040990D02*
X103976931Y-75002895D01*
X103976931Y-75002895D02*
X104167408Y-75002895D01*
X104167408Y-75002895D02*
X104281693Y-75040990D01*
X104624551Y-75802895D02*
X104624551Y-75002895D01*
X102072169Y-73224800D02*
X102186455Y-73262895D01*
X102186455Y-73262895D02*
X102376931Y-73262895D01*
X102376931Y-73262895D02*
X102453122Y-73224800D01*
X102453122Y-73224800D02*
X102491217Y-73186704D01*
X102491217Y-73186704D02*
X102529312Y-73110514D01*
X102529312Y-73110514D02*
X102529312Y-73034323D01*
X102529312Y-73034323D02*
X102491217Y-72958133D01*
X102491217Y-72958133D02*
X102453122Y-72920038D01*
X102453122Y-72920038D02*
X102376931Y-72881942D01*
X102376931Y-72881942D02*
X102224550Y-72843847D01*
X102224550Y-72843847D02*
X102148360Y-72805752D01*
X102148360Y-72805752D02*
X102110265Y-72767657D01*
X102110265Y-72767657D02*
X102072169Y-72691466D01*
X102072169Y-72691466D02*
X102072169Y-72615276D01*
X102072169Y-72615276D02*
X102110265Y-72539085D01*
X102110265Y-72539085D02*
X102148360Y-72500990D01*
X102148360Y-72500990D02*
X102224550Y-72462895D01*
X102224550Y-72462895D02*
X102415027Y-72462895D01*
X102415027Y-72462895D02*
X102529312Y-72500990D01*
X103329313Y-73186704D02*
X103291217Y-73224800D01*
X103291217Y-73224800D02*
X103176932Y-73262895D01*
X103176932Y-73262895D02*
X103100741Y-73262895D01*
X103100741Y-73262895D02*
X102986455Y-73224800D01*
X102986455Y-73224800D02*
X102910265Y-73148609D01*
X102910265Y-73148609D02*
X102872170Y-73072419D01*
X102872170Y-73072419D02*
X102834074Y-72920038D01*
X102834074Y-72920038D02*
X102834074Y-72805752D01*
X102834074Y-72805752D02*
X102872170Y-72653371D01*
X102872170Y-72653371D02*
X102910265Y-72577180D01*
X102910265Y-72577180D02*
X102986455Y-72500990D01*
X102986455Y-72500990D02*
X103100741Y-72462895D01*
X103100741Y-72462895D02*
X103176932Y-72462895D01*
X103176932Y-72462895D02*
X103291217Y-72500990D01*
X103291217Y-72500990D02*
X103329313Y-72539085D01*
X103672170Y-73262895D02*
X103672170Y-72462895D01*
X104129313Y-73262895D02*
X103786455Y-72805752D01*
X104129313Y-72462895D02*
X103672170Y-72920038D01*
X102529312Y-64880990D02*
X102453122Y-64842895D01*
X102453122Y-64842895D02*
X102338836Y-64842895D01*
X102338836Y-64842895D02*
X102224550Y-64880990D01*
X102224550Y-64880990D02*
X102148360Y-64957180D01*
X102148360Y-64957180D02*
X102110265Y-65033371D01*
X102110265Y-65033371D02*
X102072169Y-65185752D01*
X102072169Y-65185752D02*
X102072169Y-65300038D01*
X102072169Y-65300038D02*
X102110265Y-65452419D01*
X102110265Y-65452419D02*
X102148360Y-65528609D01*
X102148360Y-65528609D02*
X102224550Y-65604800D01*
X102224550Y-65604800D02*
X102338836Y-65642895D01*
X102338836Y-65642895D02*
X102415027Y-65642895D01*
X102415027Y-65642895D02*
X102529312Y-65604800D01*
X102529312Y-65604800D02*
X102567408Y-65566704D01*
X102567408Y-65566704D02*
X102567408Y-65300038D01*
X102567408Y-65300038D02*
X102415027Y-65300038D01*
X102910265Y-65642895D02*
X102910265Y-64842895D01*
X102910265Y-64842895D02*
X103367408Y-65642895D01*
X103367408Y-65642895D02*
X103367408Y-64842895D01*
X103748360Y-65642895D02*
X103748360Y-64842895D01*
X103748360Y-64842895D02*
X103938836Y-64842895D01*
X103938836Y-64842895D02*
X104053122Y-64880990D01*
X104053122Y-64880990D02*
X104129312Y-64957180D01*
X104129312Y-64957180D02*
X104167407Y-65033371D01*
X104167407Y-65033371D02*
X104205503Y-65185752D01*
X104205503Y-65185752D02*
X104205503Y-65300038D01*
X104205503Y-65300038D02*
X104167407Y-65452419D01*
X104167407Y-65452419D02*
X104129312Y-65528609D01*
X104129312Y-65528609D02*
X104053122Y-65604800D01*
X104053122Y-65604800D02*
X103938836Y-65642895D01*
X103938836Y-65642895D02*
X103748360Y-65642895D01*
X102567408Y-70646704D02*
X102529312Y-70684800D01*
X102529312Y-70684800D02*
X102415027Y-70722895D01*
X102415027Y-70722895D02*
X102338836Y-70722895D01*
X102338836Y-70722895D02*
X102224550Y-70684800D01*
X102224550Y-70684800D02*
X102148360Y-70608609D01*
X102148360Y-70608609D02*
X102110265Y-70532419D01*
X102110265Y-70532419D02*
X102072169Y-70380038D01*
X102072169Y-70380038D02*
X102072169Y-70265752D01*
X102072169Y-70265752D02*
X102110265Y-70113371D01*
X102110265Y-70113371D02*
X102148360Y-70037180D01*
X102148360Y-70037180D02*
X102224550Y-69960990D01*
X102224550Y-69960990D02*
X102338836Y-69922895D01*
X102338836Y-69922895D02*
X102415027Y-69922895D01*
X102415027Y-69922895D02*
X102529312Y-69960990D01*
X102529312Y-69960990D02*
X102567408Y-69999085D01*
X102872169Y-70684800D02*
X102986455Y-70722895D01*
X102986455Y-70722895D02*
X103176931Y-70722895D01*
X103176931Y-70722895D02*
X103253122Y-70684800D01*
X103253122Y-70684800D02*
X103291217Y-70646704D01*
X103291217Y-70646704D02*
X103329312Y-70570514D01*
X103329312Y-70570514D02*
X103329312Y-70494323D01*
X103329312Y-70494323D02*
X103291217Y-70418133D01*
X103291217Y-70418133D02*
X103253122Y-70380038D01*
X103253122Y-70380038D02*
X103176931Y-70341942D01*
X103176931Y-70341942D02*
X103024550Y-70303847D01*
X103024550Y-70303847D02*
X102948360Y-70265752D01*
X102948360Y-70265752D02*
X102910265Y-70227657D01*
X102910265Y-70227657D02*
X102872169Y-70151466D01*
X102872169Y-70151466D02*
X102872169Y-70075276D01*
X102872169Y-70075276D02*
X102910265Y-69999085D01*
X102910265Y-69999085D02*
X102948360Y-69960990D01*
X102948360Y-69960990D02*
X103024550Y-69922895D01*
X103024550Y-69922895D02*
X103215027Y-69922895D01*
X103215027Y-69922895D02*
X103329312Y-69960990D01*
X103672170Y-70722895D02*
X103672170Y-69922895D01*
X103672170Y-69922895D02*
X104129313Y-70722895D01*
X104129313Y-70722895D02*
X104129313Y-69922895D01*
D10*
X114617757Y-67360857D02*
X114646328Y-67303715D01*
X114646328Y-67303715D02*
X114646328Y-67218000D01*
X114646328Y-67218000D02*
X114617757Y-67132286D01*
X114617757Y-67132286D02*
X114560614Y-67075143D01*
X114560614Y-67075143D02*
X114503471Y-67046572D01*
X114503471Y-67046572D02*
X114389185Y-67018000D01*
X114389185Y-67018000D02*
X114303471Y-67018000D01*
X114303471Y-67018000D02*
X114189185Y-67046572D01*
X114189185Y-67046572D02*
X114132042Y-67075143D01*
X114132042Y-67075143D02*
X114074900Y-67132286D01*
X114074900Y-67132286D02*
X114046328Y-67218000D01*
X114046328Y-67218000D02*
X114046328Y-67275143D01*
X114046328Y-67275143D02*
X114074900Y-67360857D01*
X114074900Y-67360857D02*
X114103471Y-67389429D01*
X114103471Y-67389429D02*
X114303471Y-67389429D01*
X114303471Y-67389429D02*
X114303471Y-67275143D01*
X114046328Y-67646572D02*
X114646328Y-67646572D01*
X114646328Y-67646572D02*
X114046328Y-67989429D01*
X114046328Y-67989429D02*
X114646328Y-67989429D01*
X114046328Y-68275143D02*
X114646328Y-68275143D01*
X114646328Y-68275143D02*
X114646328Y-68418000D01*
X114646328Y-68418000D02*
X114617757Y-68503714D01*
X114617757Y-68503714D02*
X114560614Y-68560857D01*
X114560614Y-68560857D02*
X114503471Y-68589428D01*
X114503471Y-68589428D02*
X114389185Y-68618000D01*
X114389185Y-68618000D02*
X114303471Y-68618000D01*
X114303471Y-68618000D02*
X114189185Y-68589428D01*
X114189185Y-68589428D02*
X114132042Y-68560857D01*
X114132042Y-68560857D02*
X114074900Y-68503714D01*
X114074900Y-68503714D02*
X114046328Y-68418000D01*
X114046328Y-68418000D02*
X114046328Y-68275143D01*
X114046328Y-74495143D02*
X114646328Y-74495143D01*
X114646328Y-74495143D02*
X114217757Y-74695143D01*
X114217757Y-74695143D02*
X114646328Y-74895143D01*
X114646328Y-74895143D02*
X114046328Y-74895143D01*
X114046328Y-75180857D02*
X114646328Y-75180857D01*
X114074900Y-75437999D02*
X114046328Y-75523714D01*
X114046328Y-75523714D02*
X114046328Y-75666571D01*
X114046328Y-75666571D02*
X114074900Y-75723714D01*
X114074900Y-75723714D02*
X114103471Y-75752285D01*
X114103471Y-75752285D02*
X114160614Y-75780856D01*
X114160614Y-75780856D02*
X114217757Y-75780856D01*
X114217757Y-75780856D02*
X114274900Y-75752285D01*
X114274900Y-75752285D02*
X114303471Y-75723714D01*
X114303471Y-75723714D02*
X114332042Y-75666571D01*
X114332042Y-75666571D02*
X114360614Y-75552285D01*
X114360614Y-75552285D02*
X114389185Y-75495142D01*
X114389185Y-75495142D02*
X114417757Y-75466571D01*
X114417757Y-75466571D02*
X114474900Y-75437999D01*
X114474900Y-75437999D02*
X114532042Y-75437999D01*
X114532042Y-75437999D02*
X114589185Y-75466571D01*
X114589185Y-75466571D02*
X114617757Y-75495142D01*
X114617757Y-75495142D02*
X114646328Y-75552285D01*
X114646328Y-75552285D02*
X114646328Y-75695142D01*
X114646328Y-75695142D02*
X114617757Y-75780856D01*
X114646328Y-76152285D02*
X114646328Y-76266571D01*
X114646328Y-76266571D02*
X114617757Y-76323714D01*
X114617757Y-76323714D02*
X114560614Y-76380857D01*
X114560614Y-76380857D02*
X114446328Y-76409428D01*
X114446328Y-76409428D02*
X114246328Y-76409428D01*
X114246328Y-76409428D02*
X114132042Y-76380857D01*
X114132042Y-76380857D02*
X114074900Y-76323714D01*
X114074900Y-76323714D02*
X114046328Y-76266571D01*
X114046328Y-76266571D02*
X114046328Y-76152285D01*
X114046328Y-76152285D02*
X114074900Y-76095143D01*
X114074900Y-76095143D02*
X114132042Y-76038000D01*
X114132042Y-76038000D02*
X114246328Y-76009428D01*
X114246328Y-76009428D02*
X114446328Y-76009428D01*
X114446328Y-76009428D02*
X114560614Y-76038000D01*
X114560614Y-76038000D02*
X114617757Y-76095143D01*
X114617757Y-76095143D02*
X114646328Y-76152285D01*
D11*
X102110265Y-80882895D02*
X102110265Y-80082895D01*
X102948360Y-80882895D02*
X102681693Y-80501942D01*
X102491217Y-80882895D02*
X102491217Y-80082895D01*
X102491217Y-80082895D02*
X102795979Y-80082895D01*
X102795979Y-80082895D02*
X102872169Y-80120990D01*
X102872169Y-80120990D02*
X102910264Y-80159085D01*
X102910264Y-80159085D02*
X102948360Y-80235276D01*
X102948360Y-80235276D02*
X102948360Y-80349561D01*
X102948360Y-80349561D02*
X102910264Y-80425752D01*
X102910264Y-80425752D02*
X102872169Y-80463847D01*
X102872169Y-80463847D02*
X102795979Y-80501942D01*
X102795979Y-80501942D02*
X102491217Y-80501942D01*
X103824550Y-80959085D02*
X103748360Y-80920990D01*
X103748360Y-80920990D02*
X103672169Y-80844800D01*
X103672169Y-80844800D02*
X103557883Y-80730514D01*
X103557883Y-80730514D02*
X103481693Y-80692419D01*
X103481693Y-80692419D02*
X103405502Y-80692419D01*
X103443598Y-80882895D02*
X103367407Y-80844800D01*
X103367407Y-80844800D02*
X103291217Y-80768609D01*
X103291217Y-80768609D02*
X103253121Y-80616228D01*
X103253121Y-80616228D02*
X103253121Y-80349561D01*
X103253121Y-80349561D02*
X103291217Y-80197180D01*
X103291217Y-80197180D02*
X103367407Y-80120990D01*
X103367407Y-80120990D02*
X103443598Y-80082895D01*
X103443598Y-80082895D02*
X103595979Y-80082895D01*
X103595979Y-80082895D02*
X103672169Y-80120990D01*
X103672169Y-80120990D02*
X103748360Y-80197180D01*
X103748360Y-80197180D02*
X103786455Y-80349561D01*
X103786455Y-80349561D02*
X103786455Y-80616228D01*
X103786455Y-80616228D02*
X103748360Y-80768609D01*
X103748360Y-80768609D02*
X103672169Y-80844800D01*
X103672169Y-80844800D02*
X103595979Y-80882895D01*
X103595979Y-80882895D02*
X103443598Y-80882895D01*
D10*
X121705671Y-76052284D02*
X121105671Y-76052284D01*
X121705671Y-75423713D02*
X121419957Y-75623713D01*
X121705671Y-75766570D02*
X121105671Y-75766570D01*
X121105671Y-75766570D02*
X121105671Y-75537999D01*
X121105671Y-75537999D02*
X121134242Y-75480856D01*
X121134242Y-75480856D02*
X121162814Y-75452285D01*
X121162814Y-75452285D02*
X121219957Y-75423713D01*
X121219957Y-75423713D02*
X121305671Y-75423713D01*
X121305671Y-75423713D02*
X121362814Y-75452285D01*
X121362814Y-75452285D02*
X121391385Y-75480856D01*
X121391385Y-75480856D02*
X121419957Y-75537999D01*
X121419957Y-75537999D02*
X121419957Y-75766570D01*
X121762814Y-74766570D02*
X121734242Y-74823713D01*
X121734242Y-74823713D02*
X121677100Y-74880856D01*
X121677100Y-74880856D02*
X121591385Y-74966570D01*
X121591385Y-74966570D02*
X121562814Y-75023713D01*
X121562814Y-75023713D02*
X121562814Y-75080856D01*
X121705671Y-75052285D02*
X121677100Y-75109428D01*
X121677100Y-75109428D02*
X121619957Y-75166570D01*
X121619957Y-75166570D02*
X121505671Y-75195142D01*
X121505671Y-75195142D02*
X121305671Y-75195142D01*
X121305671Y-75195142D02*
X121191385Y-75166570D01*
X121191385Y-75166570D02*
X121134242Y-75109428D01*
X121134242Y-75109428D02*
X121105671Y-75052285D01*
X121105671Y-75052285D02*
X121105671Y-74937999D01*
X121105671Y-74937999D02*
X121134242Y-74880856D01*
X121134242Y-74880856D02*
X121191385Y-74823713D01*
X121191385Y-74823713D02*
X121305671Y-74795142D01*
X121305671Y-74795142D02*
X121505671Y-74795142D01*
X121505671Y-74795142D02*
X121619957Y-74823713D01*
X121619957Y-74823713D02*
X121677100Y-74880856D01*
X121677100Y-74880856D02*
X121705671Y-74937999D01*
X121705671Y-74937999D02*
X121705671Y-75052285D01*
D11*
X102567408Y-68106704D02*
X102529312Y-68144800D01*
X102529312Y-68144800D02*
X102415027Y-68182895D01*
X102415027Y-68182895D02*
X102338836Y-68182895D01*
X102338836Y-68182895D02*
X102224550Y-68144800D01*
X102224550Y-68144800D02*
X102148360Y-68068609D01*
X102148360Y-68068609D02*
X102110265Y-67992419D01*
X102110265Y-67992419D02*
X102072169Y-67840038D01*
X102072169Y-67840038D02*
X102072169Y-67725752D01*
X102072169Y-67725752D02*
X102110265Y-67573371D01*
X102110265Y-67573371D02*
X102148360Y-67497180D01*
X102148360Y-67497180D02*
X102224550Y-67420990D01*
X102224550Y-67420990D02*
X102338836Y-67382895D01*
X102338836Y-67382895D02*
X102415027Y-67382895D01*
X102415027Y-67382895D02*
X102529312Y-67420990D01*
X102529312Y-67420990D02*
X102567408Y-67459085D01*
X102910265Y-67763847D02*
X103176931Y-67763847D01*
X103291217Y-68182895D02*
X102910265Y-68182895D01*
X102910265Y-68182895D02*
X102910265Y-67382895D01*
X102910265Y-67382895D02*
X103291217Y-67382895D01*
D10*
X114103471Y-70272286D02*
X114074900Y-70243714D01*
X114074900Y-70243714D02*
X114046328Y-70158000D01*
X114046328Y-70158000D02*
X114046328Y-70100857D01*
X114046328Y-70100857D02*
X114074900Y-70015143D01*
X114074900Y-70015143D02*
X114132042Y-69958000D01*
X114132042Y-69958000D02*
X114189185Y-69929429D01*
X114189185Y-69929429D02*
X114303471Y-69900857D01*
X114303471Y-69900857D02*
X114389185Y-69900857D01*
X114389185Y-69900857D02*
X114503471Y-69929429D01*
X114503471Y-69929429D02*
X114560614Y-69958000D01*
X114560614Y-69958000D02*
X114617757Y-70015143D01*
X114617757Y-70015143D02*
X114646328Y-70100857D01*
X114646328Y-70100857D02*
X114646328Y-70158000D01*
X114646328Y-70158000D02*
X114617757Y-70243714D01*
X114617757Y-70243714D02*
X114589185Y-70272286D01*
X114360614Y-70529429D02*
X114360614Y-70729429D01*
X114046328Y-70815143D02*
X114046328Y-70529429D01*
X114046328Y-70529429D02*
X114646328Y-70529429D01*
X114646328Y-70529429D02*
X114646328Y-70815143D01*
X121105671Y-68618000D02*
X121705671Y-68418000D01*
X121705671Y-68418000D02*
X121105671Y-68218000D01*
X121648528Y-67675142D02*
X121677100Y-67703714D01*
X121677100Y-67703714D02*
X121705671Y-67789428D01*
X121705671Y-67789428D02*
X121705671Y-67846571D01*
X121705671Y-67846571D02*
X121677100Y-67932285D01*
X121677100Y-67932285D02*
X121619957Y-67989428D01*
X121619957Y-67989428D02*
X121562814Y-68017999D01*
X121562814Y-68017999D02*
X121448528Y-68046571D01*
X121448528Y-68046571D02*
X121362814Y-68046571D01*
X121362814Y-68046571D02*
X121248528Y-68017999D01*
X121248528Y-68017999D02*
X121191385Y-67989428D01*
X121191385Y-67989428D02*
X121134242Y-67932285D01*
X121134242Y-67932285D02*
X121105671Y-67846571D01*
X121105671Y-67846571D02*
X121105671Y-67789428D01*
X121105671Y-67789428D02*
X121134242Y-67703714D01*
X121134242Y-67703714D02*
X121162814Y-67675142D01*
X121648528Y-67075142D02*
X121677100Y-67103714D01*
X121677100Y-67103714D02*
X121705671Y-67189428D01*
X121705671Y-67189428D02*
X121705671Y-67246571D01*
X121705671Y-67246571D02*
X121677100Y-67332285D01*
X121677100Y-67332285D02*
X121619957Y-67389428D01*
X121619957Y-67389428D02*
X121562814Y-67417999D01*
X121562814Y-67417999D02*
X121448528Y-67446571D01*
X121448528Y-67446571D02*
X121362814Y-67446571D01*
X121362814Y-67446571D02*
X121248528Y-67417999D01*
X121248528Y-67417999D02*
X121191385Y-67389428D01*
X121191385Y-67389428D02*
X121134242Y-67332285D01*
X121134242Y-67332285D02*
X121105671Y-67246571D01*
X121105671Y-67246571D02*
X121105671Y-67189428D01*
X121105671Y-67189428D02*
X121134242Y-67103714D01*
X121134242Y-67103714D02*
X121162814Y-67075142D01*
D11*
X108188429Y-86844657D02*
X108236048Y-86797038D01*
X108236048Y-86797038D02*
X108331286Y-86749419D01*
X108331286Y-86749419D02*
X108569381Y-86749419D01*
X108569381Y-86749419D02*
X108664619Y-86797038D01*
X108664619Y-86797038D02*
X108712238Y-86844657D01*
X108712238Y-86844657D02*
X108759857Y-86939895D01*
X108759857Y-86939895D02*
X108759857Y-87035133D01*
X108759857Y-87035133D02*
X108712238Y-87177990D01*
X108712238Y-87177990D02*
X108140810Y-87749419D01*
X108140810Y-87749419D02*
X108759857Y-87749419D01*
X109093191Y-86749419D02*
X109712238Y-86749419D01*
X109712238Y-86749419D02*
X109378905Y-87130371D01*
X109378905Y-87130371D02*
X109521762Y-87130371D01*
X109521762Y-87130371D02*
X109617000Y-87177990D01*
X109617000Y-87177990D02*
X109664619Y-87225609D01*
X109664619Y-87225609D02*
X109712238Y-87320847D01*
X109712238Y-87320847D02*
X109712238Y-87558942D01*
X109712238Y-87558942D02*
X109664619Y-87654180D01*
X109664619Y-87654180D02*
X109617000Y-87701800D01*
X109617000Y-87701800D02*
X109521762Y-87749419D01*
X109521762Y-87749419D02*
X109236048Y-87749419D01*
X109236048Y-87749419D02*
X109140810Y-87701800D01*
X109140810Y-87701800D02*
X109093191Y-87654180D01*
X110140810Y-87654180D02*
X110188429Y-87701800D01*
X110188429Y-87701800D02*
X110140810Y-87749419D01*
X110140810Y-87749419D02*
X110093191Y-87701800D01*
X110093191Y-87701800D02*
X110140810Y-87654180D01*
X110140810Y-87654180D02*
X110140810Y-87749419D01*
X111140809Y-87749419D02*
X110569381Y-87749419D01*
X110855095Y-87749419D02*
X110855095Y-86749419D01*
X110855095Y-86749419D02*
X110759857Y-86892276D01*
X110759857Y-86892276D02*
X110664619Y-86987514D01*
X110664619Y-86987514D02*
X110569381Y-87035133D01*
X112093190Y-87749419D02*
X111521762Y-87749419D01*
X111807476Y-87749419D02*
X111807476Y-86749419D01*
X111807476Y-86749419D02*
X111712238Y-86892276D01*
X111712238Y-86892276D02*
X111617000Y-86987514D01*
X111617000Y-86987514D02*
X111521762Y-87035133D01*
X112950333Y-87082752D02*
X112950333Y-87749419D01*
X112712238Y-86701800D02*
X112474143Y-87416085D01*
X112474143Y-87416085D02*
X113093190Y-87416085D01*
X122174000Y-81796000D02*
X122174000Y-88978420D01*
X99060000Y-88978420D02*
X99060000Y-81796000D01*
X122174000Y-88392000D02*
X99060000Y-88392000D01*
X122174000Y-88392000D02*
X121047496Y-88978421D01*
X122174000Y-88392000D02*
X121047496Y-87805579D01*
X99060000Y-88392000D02*
X100186504Y-87805579D01*
X99060000Y-88392000D02*
X100186504Y-88978421D01*
X127738657Y-74056570D02*
X127691038Y-74008951D01*
X127691038Y-74008951D02*
X127643419Y-73913713D01*
X127643419Y-73913713D02*
X127643419Y-73675618D01*
X127643419Y-73675618D02*
X127691038Y-73580380D01*
X127691038Y-73580380D02*
X127738657Y-73532761D01*
X127738657Y-73532761D02*
X127833895Y-73485142D01*
X127833895Y-73485142D02*
X127929133Y-73485142D01*
X127929133Y-73485142D02*
X128071990Y-73532761D01*
X128071990Y-73532761D02*
X128643419Y-74104189D01*
X128643419Y-74104189D02*
X128643419Y-73485142D01*
X128643419Y-72532761D02*
X128643419Y-73104189D01*
X128643419Y-72818475D02*
X127643419Y-72818475D01*
X127643419Y-72818475D02*
X127786276Y-72913713D01*
X127786276Y-72913713D02*
X127881514Y-73008951D01*
X127881514Y-73008951D02*
X127929133Y-73104189D01*
X128548180Y-72104189D02*
X128595800Y-72056570D01*
X128595800Y-72056570D02*
X128643419Y-72104189D01*
X128643419Y-72104189D02*
X128595800Y-72151808D01*
X128595800Y-72151808D02*
X128548180Y-72104189D01*
X128548180Y-72104189D02*
X128643419Y-72104189D01*
X127643419Y-71723237D02*
X127643419Y-71104190D01*
X127643419Y-71104190D02*
X128024371Y-71437523D01*
X128024371Y-71437523D02*
X128024371Y-71294666D01*
X128024371Y-71294666D02*
X128071990Y-71199428D01*
X128071990Y-71199428D02*
X128119609Y-71151809D01*
X128119609Y-71151809D02*
X128214847Y-71104190D01*
X128214847Y-71104190D02*
X128452942Y-71104190D01*
X128452942Y-71104190D02*
X128548180Y-71151809D01*
X128548180Y-71151809D02*
X128595800Y-71199428D01*
X128595800Y-71199428D02*
X128643419Y-71294666D01*
X128643419Y-71294666D02*
X128643419Y-71580380D01*
X128643419Y-71580380D02*
X128595800Y-71675618D01*
X128595800Y-71675618D02*
X128548180Y-71723237D01*
X127643419Y-70770856D02*
X127643419Y-70151809D01*
X127643419Y-70151809D02*
X128024371Y-70485142D01*
X128024371Y-70485142D02*
X128024371Y-70342285D01*
X128024371Y-70342285D02*
X128071990Y-70247047D01*
X128071990Y-70247047D02*
X128119609Y-70199428D01*
X128119609Y-70199428D02*
X128214847Y-70151809D01*
X128214847Y-70151809D02*
X128452942Y-70151809D01*
X128452942Y-70151809D02*
X128548180Y-70199428D01*
X128548180Y-70199428D02*
X128595800Y-70247047D01*
X128595800Y-70247047D02*
X128643419Y-70342285D01*
X128643419Y-70342285D02*
X128643419Y-70627999D01*
X128643419Y-70627999D02*
X128595800Y-70723237D01*
X128595800Y-70723237D02*
X128548180Y-70770856D01*
X127643419Y-69294666D02*
X127643419Y-69485142D01*
X127643419Y-69485142D02*
X127691038Y-69580380D01*
X127691038Y-69580380D02*
X127738657Y-69627999D01*
X127738657Y-69627999D02*
X127881514Y-69723237D01*
X127881514Y-69723237D02*
X128071990Y-69770856D01*
X128071990Y-69770856D02*
X128452942Y-69770856D01*
X128452942Y-69770856D02*
X128548180Y-69723237D01*
X128548180Y-69723237D02*
X128595800Y-69675618D01*
X128595800Y-69675618D02*
X128643419Y-69580380D01*
X128643419Y-69580380D02*
X128643419Y-69389904D01*
X128643419Y-69389904D02*
X128595800Y-69294666D01*
X128595800Y-69294666D02*
X128548180Y-69247047D01*
X128548180Y-69247047D02*
X128452942Y-69199428D01*
X128452942Y-69199428D02*
X128214847Y-69199428D01*
X128214847Y-69199428D02*
X128119609Y-69247047D01*
X128119609Y-69247047D02*
X128071990Y-69294666D01*
X128071990Y-69294666D02*
X128024371Y-69389904D01*
X128024371Y-69389904D02*
X128024371Y-69580380D01*
X128024371Y-69580380D02*
X128071990Y-69675618D01*
X128071990Y-69675618D02*
X128119609Y-69723237D01*
X128119609Y-69723237D02*
X128214847Y-69770856D01*
X121658000Y-82296000D02*
X129872420Y-82296000D01*
X129872420Y-60960000D02*
X121658000Y-60960000D01*
X129286000Y-82296000D02*
X129286000Y-60960000D01*
X129286000Y-82296000D02*
X128699579Y-81169496D01*
X129286000Y-82296000D02*
X129872421Y-81169496D01*
X129286000Y-60960000D02*
X129872421Y-62086504D01*
X129286000Y-60960000D02*
X128699579Y-62086504D01*
D12*
X107950095Y-78702819D02*
X107950095Y-79512342D01*
X107950095Y-79512342D02*
X107997714Y-79607580D01*
X107997714Y-79607580D02*
X108045333Y-79655200D01*
X108045333Y-79655200D02*
X108140571Y-79702819D01*
X108140571Y-79702819D02*
X108331047Y-79702819D01*
X108331047Y-79702819D02*
X108426285Y-79655200D01*
X108426285Y-79655200D02*
X108473904Y-79607580D01*
X108473904Y-79607580D02*
X108521523Y-79512342D01*
X108521523Y-79512342D02*
X108521523Y-78702819D01*
X109521523Y-79702819D02*
X108950095Y-79702819D01*
X109235809Y-79702819D02*
X109235809Y-78702819D01*
X109235809Y-78702819D02*
X109140571Y-78845676D01*
X109140571Y-78845676D02*
X109045333Y-78940914D01*
X109045333Y-78940914D02*
X108950095Y-78988533D01*
D11*
X120938704Y-64319047D02*
X120976800Y-64357143D01*
X120976800Y-64357143D02*
X121014895Y-64471428D01*
X121014895Y-64471428D02*
X121014895Y-64547619D01*
X121014895Y-64547619D02*
X120976800Y-64661905D01*
X120976800Y-64661905D02*
X120900609Y-64738095D01*
X120900609Y-64738095D02*
X120824419Y-64776190D01*
X120824419Y-64776190D02*
X120672038Y-64814286D01*
X120672038Y-64814286D02*
X120557752Y-64814286D01*
X120557752Y-64814286D02*
X120405371Y-64776190D01*
X120405371Y-64776190D02*
X120329180Y-64738095D01*
X120329180Y-64738095D02*
X120252990Y-64661905D01*
X120252990Y-64661905D02*
X120214895Y-64547619D01*
X120214895Y-64547619D02*
X120214895Y-64471428D01*
X120214895Y-64471428D02*
X120252990Y-64357143D01*
X120252990Y-64357143D02*
X120291085Y-64319047D01*
X120291085Y-64014286D02*
X120252990Y-63976190D01*
X120252990Y-63976190D02*
X120214895Y-63900000D01*
X120214895Y-63900000D02*
X120214895Y-63709524D01*
X120214895Y-63709524D02*
X120252990Y-63633333D01*
X120252990Y-63633333D02*
X120291085Y-63595238D01*
X120291085Y-63595238D02*
X120367276Y-63557143D01*
X120367276Y-63557143D02*
X120443466Y-63557143D01*
X120443466Y-63557143D02*
X120557752Y-63595238D01*
X120557752Y-63595238D02*
X121014895Y-64052381D01*
X121014895Y-64052381D02*
X121014895Y-63557143D01*
X121091085Y-63404762D02*
X121091085Y-62795238D01*
X120291085Y-62642857D02*
X120252990Y-62604761D01*
X120252990Y-62604761D02*
X120214895Y-62528571D01*
X120214895Y-62528571D02*
X120214895Y-62338095D01*
X120214895Y-62338095D02*
X120252990Y-62261904D01*
X120252990Y-62261904D02*
X120291085Y-62223809D01*
X120291085Y-62223809D02*
X120367276Y-62185714D01*
X120367276Y-62185714D02*
X120443466Y-62185714D01*
X120443466Y-62185714D02*
X120557752Y-62223809D01*
X120557752Y-62223809D02*
X121014895Y-62680952D01*
X121014895Y-62680952D02*
X121014895Y-62185714D01*
X109000704Y-64827047D02*
X109038800Y-64865143D01*
X109038800Y-64865143D02*
X109076895Y-64979428D01*
X109076895Y-64979428D02*
X109076895Y-65055619D01*
X109076895Y-65055619D02*
X109038800Y-65169905D01*
X109038800Y-65169905D02*
X108962609Y-65246095D01*
X108962609Y-65246095D02*
X108886419Y-65284190D01*
X108886419Y-65284190D02*
X108734038Y-65322286D01*
X108734038Y-65322286D02*
X108619752Y-65322286D01*
X108619752Y-65322286D02*
X108467371Y-65284190D01*
X108467371Y-65284190D02*
X108391180Y-65246095D01*
X108391180Y-65246095D02*
X108314990Y-65169905D01*
X108314990Y-65169905D02*
X108276895Y-65055619D01*
X108276895Y-65055619D02*
X108276895Y-64979428D01*
X108276895Y-64979428D02*
X108314990Y-64865143D01*
X108314990Y-64865143D02*
X108353085Y-64827047D01*
X108353085Y-64522286D02*
X108314990Y-64484190D01*
X108314990Y-64484190D02*
X108276895Y-64408000D01*
X108276895Y-64408000D02*
X108276895Y-64217524D01*
X108276895Y-64217524D02*
X108314990Y-64141333D01*
X108314990Y-64141333D02*
X108353085Y-64103238D01*
X108353085Y-64103238D02*
X108429276Y-64065143D01*
X108429276Y-64065143D02*
X108505466Y-64065143D01*
X108505466Y-64065143D02*
X108619752Y-64103238D01*
X108619752Y-64103238D02*
X109076895Y-64560381D01*
X109076895Y-64560381D02*
X109076895Y-64065143D01*
X109153085Y-63912762D02*
X109153085Y-63303238D01*
X109076895Y-62693714D02*
X109076895Y-63150857D01*
X109076895Y-62922285D02*
X108276895Y-62922285D01*
X108276895Y-62922285D02*
X108391180Y-62998476D01*
X108391180Y-62998476D02*
X108467371Y-63074666D01*
X108467371Y-63074666D02*
X108505466Y-63150857D01*
X106546667Y-65058704D02*
X106508571Y-65096800D01*
X106508571Y-65096800D02*
X106394286Y-65134895D01*
X106394286Y-65134895D02*
X106318095Y-65134895D01*
X106318095Y-65134895D02*
X106203809Y-65096800D01*
X106203809Y-65096800D02*
X106127619Y-65020609D01*
X106127619Y-65020609D02*
X106089524Y-64944419D01*
X106089524Y-64944419D02*
X106051428Y-64792038D01*
X106051428Y-64792038D02*
X106051428Y-64677752D01*
X106051428Y-64677752D02*
X106089524Y-64525371D01*
X106089524Y-64525371D02*
X106127619Y-64449180D01*
X106127619Y-64449180D02*
X106203809Y-64372990D01*
X106203809Y-64372990D02*
X106318095Y-64334895D01*
X106318095Y-64334895D02*
X106394286Y-64334895D01*
X106394286Y-64334895D02*
X106508571Y-64372990D01*
X106508571Y-64372990D02*
X106546667Y-64411085D01*
X107308571Y-65134895D02*
X106851428Y-65134895D01*
X107080000Y-65134895D02*
X107080000Y-64334895D01*
X107080000Y-64334895D02*
X107003809Y-64449180D01*
X107003809Y-64449180D02*
X106927619Y-64525371D01*
X106927619Y-64525371D02*
X106851428Y-64563466D01*
D13*
%TO.C,U1*%
X105462000Y-72372500D02*
X105462000Y-75872500D01*
X105462000Y-72372500D02*
X105627000Y-72372500D01*
X105462000Y-75872500D02*
X106777000Y-75872500D01*
X110647000Y-75872500D02*
X111962000Y-75872500D01*
X111962000Y-72372500D02*
X111797000Y-72372500D01*
X111962000Y-75872500D02*
X111962000Y-72372500D01*
D14*
X111112000Y-69117500D02*
G75*
G02*
X110912000Y-69117500I-100000J0D01*
G01*
X110912000Y-69117500D02*
G75*
G02*
X111112000Y-69117500I100000J0D01*
G01*
D15*
%TO.C,C2_2*%
X118274752Y-62590000D02*
X116852248Y-62590000D01*
X118274752Y-64410000D02*
X116852248Y-64410000D01*
%TO.C,C2_1*%
X110974000Y-64052888D02*
X109434000Y-64052888D01*
X110974000Y-64092888D02*
X109434000Y-64092888D01*
X110974000Y-64132888D02*
X109435000Y-64132888D01*
X110974000Y-64172888D02*
X109437000Y-64172888D01*
X110974000Y-64212888D02*
X109439000Y-64212888D01*
X110974000Y-64252888D02*
X109442000Y-64252888D01*
X110974000Y-64292888D02*
X109445000Y-64292888D01*
X110974000Y-64332888D02*
X109449000Y-64332888D01*
X110974000Y-64372888D02*
X109454000Y-64372888D01*
X110974000Y-64412888D02*
X109459000Y-64412888D01*
X110974000Y-64452888D02*
X109465000Y-64452888D01*
X110974000Y-64492888D02*
X109471000Y-64492888D01*
X110974000Y-64532888D02*
X109478000Y-64532888D01*
X110974000Y-64572888D02*
X109486000Y-64572888D01*
X110974000Y-64612888D02*
X109495000Y-64612888D01*
X110974000Y-64652888D02*
X109504000Y-64652888D01*
X110974000Y-64692888D02*
X109513000Y-64692888D01*
X110974000Y-64732888D02*
X109524000Y-64732888D01*
X110974000Y-64772888D02*
X109535000Y-64772888D01*
X110974000Y-64812888D02*
X109547000Y-64812888D01*
X110974000Y-64852888D02*
X109559000Y-64852888D01*
X110974000Y-64892888D02*
X109572000Y-64892888D01*
X110974000Y-64932888D02*
X109586000Y-64932888D01*
X110974000Y-64972888D02*
X109601000Y-64972888D01*
X110974000Y-65012888D02*
X109616000Y-65012888D01*
X110974000Y-65052888D02*
X109632000Y-65052888D01*
X110974000Y-65092888D02*
X109649000Y-65092888D01*
X110974000Y-65132888D02*
X109667000Y-65132888D01*
X110974000Y-65172888D02*
X109685000Y-65172888D01*
X110974000Y-65212888D02*
X109705000Y-65212888D01*
X110974000Y-65252888D02*
X109725000Y-65252888D01*
X110974000Y-65292888D02*
X109746000Y-65292888D01*
X110974000Y-65332888D02*
X109768000Y-65332888D01*
X110974000Y-65372888D02*
X109791000Y-65372888D01*
X110974000Y-65412888D02*
X109815000Y-65412888D01*
X110974000Y-65452888D02*
X109839000Y-65452888D01*
X110974000Y-65492888D02*
X109865000Y-65492888D01*
X110974000Y-65532888D02*
X109892000Y-65532888D01*
X110974000Y-65572888D02*
X109920000Y-65572888D01*
X110974000Y-65612888D02*
X109949000Y-65612888D01*
X110974000Y-65652888D02*
X109979000Y-65652888D01*
X110974000Y-65692888D02*
X110011000Y-65692888D01*
X110974000Y-65732888D02*
X110044000Y-65732888D01*
X110974000Y-65772888D02*
X110078000Y-65772888D01*
X110974000Y-65812888D02*
X110113000Y-65812888D01*
X110974000Y-65852888D02*
X110150000Y-65852888D01*
X110974000Y-65892888D02*
X110189000Y-65892888D01*
X110974000Y-65932888D02*
X110229000Y-65932888D01*
X110974000Y-65972888D02*
X110271000Y-65972888D01*
X110974000Y-66012888D02*
X110315000Y-66012888D01*
X110974000Y-66052888D02*
X110362000Y-66052888D01*
X112297000Y-66652888D02*
X111731000Y-66652888D01*
X112531000Y-66612888D02*
X111497000Y-66612888D01*
X112691000Y-66572888D02*
X111337000Y-66572888D01*
X112819000Y-66532888D02*
X111209000Y-66532888D01*
X112928000Y-66492888D02*
X111100000Y-66492888D01*
X113025000Y-66452888D02*
X111003000Y-66452888D01*
X113112000Y-66412888D02*
X110916000Y-66412888D01*
X113191000Y-66372888D02*
X110837000Y-66372888D01*
X113265000Y-66332888D02*
X110763000Y-66332888D01*
X113333000Y-66292888D02*
X110695000Y-66292888D01*
X113397000Y-66252888D02*
X110631000Y-66252888D01*
X113457000Y-66212888D02*
X110571000Y-66212888D01*
X113489000Y-61248113D02*
X113489000Y-61748113D01*
X113513000Y-66172888D02*
X110515000Y-66172888D01*
X113567000Y-66132888D02*
X110461000Y-66132888D01*
X113618000Y-66092888D02*
X110410000Y-66092888D01*
X113666000Y-66052888D02*
X113054000Y-66052888D01*
X113713000Y-66012888D02*
X113054000Y-66012888D01*
X113739000Y-61498113D02*
X113239000Y-61498113D01*
X113757000Y-65972888D02*
X113054000Y-65972888D01*
X113799000Y-65932888D02*
X113054000Y-65932888D01*
X113839000Y-65892888D02*
X113054000Y-65892888D01*
X113878000Y-65852888D02*
X113054000Y-65852888D01*
X113915000Y-65812888D02*
X113054000Y-65812888D01*
X113950000Y-65772888D02*
X113054000Y-65772888D01*
X113984000Y-65732888D02*
X113054000Y-65732888D01*
X114017000Y-65692888D02*
X113054000Y-65692888D01*
X114049000Y-65652888D02*
X113054000Y-65652888D01*
X114079000Y-65612888D02*
X113054000Y-65612888D01*
X114108000Y-65572888D02*
X113054000Y-65572888D01*
X114136000Y-65532888D02*
X113054000Y-65532888D01*
X114163000Y-65492888D02*
X113054000Y-65492888D01*
X114189000Y-65452888D02*
X113054000Y-65452888D01*
X114213000Y-65412888D02*
X113054000Y-65412888D01*
X114237000Y-65372888D02*
X113054000Y-65372888D01*
X114260000Y-65332888D02*
X113054000Y-65332888D01*
X114282000Y-65292888D02*
X113054000Y-65292888D01*
X114303000Y-65252888D02*
X113054000Y-65252888D01*
X114323000Y-65212888D02*
X113054000Y-65212888D01*
X114343000Y-65172888D02*
X113054000Y-65172888D01*
X114361000Y-65132888D02*
X113054000Y-65132888D01*
X114379000Y-65092888D02*
X113054000Y-65092888D01*
X114396000Y-65052888D02*
X113054000Y-65052888D01*
X114412000Y-65012888D02*
X113054000Y-65012888D01*
X114427000Y-64972888D02*
X113054000Y-64972888D01*
X114442000Y-64932888D02*
X113054000Y-64932888D01*
X114456000Y-64892888D02*
X113054000Y-64892888D01*
X114469000Y-64852888D02*
X113054000Y-64852888D01*
X114481000Y-64812888D02*
X113054000Y-64812888D01*
X114493000Y-64772888D02*
X113054000Y-64772888D01*
X114504000Y-64732888D02*
X113054000Y-64732888D01*
X114515000Y-64692888D02*
X113054000Y-64692888D01*
X114524000Y-64652888D02*
X113054000Y-64652888D01*
X114533000Y-64612888D02*
X113054000Y-64612888D01*
X114542000Y-64572888D02*
X113054000Y-64572888D01*
X114550000Y-64532888D02*
X113054000Y-64532888D01*
X114557000Y-64492888D02*
X113054000Y-64492888D01*
X114563000Y-64452888D02*
X113054000Y-64452888D01*
X114569000Y-64412888D02*
X113054000Y-64412888D01*
X114574000Y-64372888D02*
X113054000Y-64372888D01*
X114579000Y-64332888D02*
X113054000Y-64332888D01*
X114583000Y-64292888D02*
X113054000Y-64292888D01*
X114586000Y-64252888D02*
X113054000Y-64252888D01*
X114589000Y-64212888D02*
X113054000Y-64212888D01*
X114591000Y-64172888D02*
X113054000Y-64172888D01*
X114593000Y-64132888D02*
X113054000Y-64132888D01*
X114594000Y-64052888D02*
X113054000Y-64052888D01*
X114594000Y-64092888D02*
X113054000Y-64092888D01*
X114634000Y-64052888D02*
G75*
G02*
X109394000Y-64052888I-2620000J0D01*
G01*
X109394000Y-64052888D02*
G75*
G02*
X114634000Y-64052888I2620000J0D01*
G01*
%TO.C,J1*%
X115276000Y-66488000D02*
X115276000Y-76768000D01*
X115276000Y-66488000D02*
X117876000Y-66488000D01*
X115276000Y-76768000D02*
X120476000Y-76768000D01*
X117876000Y-66488000D02*
X117876000Y-69088000D01*
X117876000Y-69088000D02*
X120476000Y-69088000D01*
X119146000Y-66488000D02*
X120476000Y-66488000D01*
X120476000Y-66488000D02*
X120476000Y-67818000D01*
X120476000Y-69088000D02*
X120476000Y-76768000D01*
%TO.C,C1*%
X105968748Y-65638000D02*
X107391252Y-65638000D01*
X105968748Y-67458000D02*
X107391252Y-67458000D01*
%TD*%
%LPC*%
D16*
%TO.C,U1*%
X111012000Y-71107500D03*
X108712000Y-71107500D03*
X106412000Y-71107500D03*
D17*
X108712000Y-77137500D03*
%TD*%
D18*
%TO.C,C2_2*%
X119126000Y-63500000D03*
X116001000Y-63500000D03*
%TD*%
D19*
%TO.C,C2_1*%
X112014000Y-63052888D03*
D20*
X112014000Y-65052888D03*
%TD*%
D21*
%TO.C,J1*%
X119146000Y-67818000D03*
D22*
X116606000Y-67818000D03*
X119146000Y-70358000D03*
X116606000Y-70358000D03*
X119146000Y-72898000D03*
X116606000Y-72898000D03*
X119146000Y-75438000D03*
X116606000Y-75438000D03*
%TD*%
D23*
%TO.C,C1*%
X105117500Y-66548000D03*
X108242500Y-66548000D03*
%TD*%
D21*
%TO.C,J2*%
X100838000Y-62738000D03*
D22*
X100838000Y-65278000D03*
X100838000Y-67818000D03*
X100838000Y-70358000D03*
X100838000Y-72898000D03*
X100838000Y-75438000D03*
X100838000Y-77978000D03*
X100838000Y-80518000D03*
%TD*%
%LPD*%
M02*
