%TF.GenerationSoftware,KiCad,Pcbnew,9.0.3*%
%TF.CreationDate,2025-10-19T16:24:49+11:00*%
%TF.ProjectId,NRF24L01-better-breakout,4e524632-344c-4303-912d-626574746572,rev?*%
%TF.SameCoordinates,Original*%
%TF.FileFunction,Copper,L2,Bot*%
%TF.FilePolarity,Positive*%
%FSLAX46Y46*%
G04 Gerber Fmt 4.6, Leading zero omitted, Abs format (unit mm)*
G04 Created by KiCad (PCBNEW 9.0.3) date 2025-10-19 16:24:49*
%MOMM*%
%LPD*%
G01*
G04 APERTURE LIST*
G04 Aperture macros list*
%AMRoundRect*
0 Rectangle with rounded corners*
0 $1 Rounding radius*
0 $2 $3 $4 $5 $6 $7 $8 $9 X,Y pos of 4 corners*
0 Add a 4 corners polygon primitive as box body*
4,1,4,$2,$3,$4,$5,$6,$7,$8,$9,$2,$3,0*
0 Add four circle primitives for the rounded corners*
1,1,$1+$1,$2,$3*
1,1,$1+$1,$4,$5*
1,1,$1+$1,$6,$7*
1,1,$1+$1,$8,$9*
0 Add four rect primitives between the rounded corners*
20,1,$1+$1,$2,$3,$4,$5,0*
20,1,$1+$1,$4,$5,$6,$7,0*
20,1,$1+$1,$6,$7,$8,$9,0*
20,1,$1+$1,$8,$9,$2,$3,0*%
G04 Aperture macros list end*
%TA.AperFunction,ComponentPad*%
%ADD10RoundRect,0.250000X-0.550000X0.550000X-0.550000X-0.550000X0.550000X-0.550000X0.550000X0.550000X0*%
%TD*%
%TA.AperFunction,ComponentPad*%
%ADD11C,1.600000*%
%TD*%
%TA.AperFunction,ComponentPad*%
%ADD12R,1.700000X1.700000*%
%TD*%
%TA.AperFunction,ComponentPad*%
%ADD13C,1.700000*%
%TD*%
%TA.AperFunction,Conductor*%
%ADD14C,0.200000*%
%TD*%
%TA.AperFunction,Conductor*%
%ADD15C,0.500000*%
%TD*%
G04 APERTURE END LIST*
D10*
%TO.P,C2_1,1*%
%TO.N,3V3*%
X112014000Y-63052888D03*
D11*
%TO.P,C2_1,2*%
%TO.N,GND*%
X112014000Y-65052888D03*
%TD*%
D12*
%TO.P,J1,1,Pin_1*%
%TO.N,3V3*%
X119146000Y-67818000D03*
D13*
%TO.P,J1,2,Pin_2*%
%TO.N,GND*%
X116606000Y-67818000D03*
%TO.P,J1,3,Pin_3*%
%TO.N,CSN*%
X119146000Y-70358000D03*
%TO.P,J1,4,Pin_4*%
%TO.N,CE*%
X116606000Y-70358000D03*
%TO.P,J1,5,Pin_5*%
%TO.N,MOSI*%
X119146000Y-72898000D03*
%TO.P,J1,6,Pin_6*%
%TO.N,SCk*%
X116606000Y-72898000D03*
%TO.P,J1,7,Pin_7*%
%TO.N,IRQ*%
X119146000Y-75438000D03*
%TO.P,J1,8,Pin_8*%
%TO.N,MISO*%
X116606000Y-75438000D03*
%TD*%
D12*
%TO.P,J2,1,Pin_1*%
%TO.N,VCC*%
X100838000Y-62738000D03*
D13*
%TO.P,J2,2,Pin_2*%
%TO.N,GND*%
X100838000Y-65278000D03*
%TO.P,J2,3,Pin_3*%
%TO.N,CE*%
X100838000Y-67818000D03*
%TO.P,J2,4,Pin_4*%
%TO.N,CSN*%
X100838000Y-70358000D03*
%TO.P,J2,5,Pin_5*%
%TO.N,SCk*%
X100838000Y-72898000D03*
%TO.P,J2,6,Pin_6*%
%TO.N,MOSI*%
X100838000Y-75438000D03*
%TO.P,J2,7,Pin_7*%
%TO.N,MISO*%
X100838000Y-77978000D03*
%TO.P,J2,8,Pin_8*%
%TO.N,IRQ*%
X100838000Y-80518000D03*
%TD*%
D14*
%TO.N,IRQ*%
X100838000Y-80518000D02*
X114066000Y-80518000D01*
X114066000Y-80518000D02*
X119146000Y-75438000D01*
%TO.N,CSN*%
X117876000Y-71628000D02*
X119146000Y-70358000D01*
X102108000Y-71628000D02*
X117876000Y-71628000D01*
X100838000Y-70358000D02*
X102108000Y-71628000D01*
%TO.N,MOSI*%
X102108000Y-74168000D02*
X117876000Y-74168000D01*
X100838000Y-75438000D02*
X102108000Y-74168000D01*
X117876000Y-74168000D02*
X119146000Y-72898000D01*
%TO.N,SCk*%
X100838000Y-72898000D02*
X116606000Y-72898000D01*
%TO.N,MISO*%
X116606000Y-75438000D02*
X114066000Y-77978000D01*
X114066000Y-77978000D02*
X100838000Y-77978000D01*
%TO.N,CE*%
X100838000Y-67818000D02*
X103378000Y-70358000D01*
X103378000Y-70358000D02*
X116606000Y-70358000D01*
D15*
%TO.N,GND*%
X100838000Y-65278000D02*
X103378000Y-67818000D01*
X103378000Y-67818000D02*
X116606000Y-67818000D01*
%TD*%
M02*
